<svg xmlns="http://www.w3.org/2000/svg" height="24px" viewBox="0 -960 960 960" width="24px" fill="#000000"><path d="M480-46q-91 0-169.99-34.08-78.98-34.09-137.41-92.52-58.43-58.43-92.52-137.41Q46-389 46-480q0-91.34 33.5-170.17Q113-729 172-788l90 89q-42 42-66 98.17t-24 121.06Q172-350 261-261t219 89q130 0 219-89t89-218.77q0-64.89-23.5-121.06T699-699l89-89q59 59 92.5 137.83Q914-571.34 914-480q0 91-34.08 169.99-34.09 78.98-92.52 137.41-58.43 58.43-137.41 92.52Q571-46 480-46Zm-63-371v-497h126v497H417Z"/></svg>